<?xml version="1.0" standalone="no"?>
<!DOCTYPE svg PUBLIC "-//W3C//DTD SVG 20010904//EN"
 "http://www.w3.org/TR/2001/REC-SVG-20010904/DTD/svg10.dtd">
<svg version="1.0" xmlns="http://www.w3.org/2000/svg"
 width="1315.000000pt" height="1183.000000pt" viewBox="0 0 1315.000000 1183.000000"
 preserveAspectRatio="xMidYMid meet">
<metadata>
Created by potrace 1.16, written by Peter Selinger 2001-2019
</metadata>
<g transform="translate(0.000000,1183.000000) scale(0.100000,-0.100000)"
fill="#163A70" stroke="none">
<path d="M5766 11819 c-257 -27 -513 -124 -729 -275 -126 -89 -4668 -4633
-4754 -4757 -371 -532 -375 -1186 -10 -1732 53 -78 355 -385 2341 -2373 1255
-1256 2317 -2313 2361 -2348 426 -345 994 -427 1517 -218 87 34 87 34 170 0
203 -83 348 -111 583 -110 317 1 562 75 830 251 93 61 256 222 2426 2392 2020
2020 2334 2338 2386 2416 116 173 190 348 235 555 32 149 32 438 0 586 -49
227 -141 433 -271 604 -103 136 -4601 4635 -4721 4722 -149 108 -305 186 -468
233 -336 98 -722 73 -1028 -65 -60 -27 -60 -27 -105 -5 -196 100 -510 151
-763 124z m404 -233 c41 -9 98 -24 126 -33 52 -16 52 -16 -10 -66 -73 -60
-4416 -4396 -4554 -4547 -493 -541 -543 -1309 -125 -1904 43 -62 597 -622
2328 -2354 1248 -1250 2301 -2298 2338 -2329 38 -31 64 -60 59 -65 -4 -4 -53
-20 -108 -34 -211 -56 -519 -42 -727 33 -108 38 -260 119 -346 183 -125 94
-4646 4627 -4708 4720 -145 217 -210 420 -220 680 -10 282 56 516 214 760 49
74 353 383 2342 2373 1257 1258 2318 2312 2356 2342 171 132 379 220 600 254
88 14 347 6 435 -13z m1325 0 c181 -41 364 -123 509 -229 122 -89 4611 -4582
4689 -4693 275 -392 317 -908 107 -1325 -98 -193 8 -83 -2414 -2507 -1244
-1245 -2295 -2291 -2338 -2325 -151 -122 -312 -203 -506 -254 -119 -31 -353
-42 -481 -24 -91 14 -232 48 -244 60 -4 4 16 26 45 49 29 23 1084 1073 2344
2334 2488 2491 2360 2357 2469 2583 109 225 149 403 149 660 0 319 -76 571
-255 842 -68 103 -177 213 -2348 2386 -1252 1253 -2307 2303 -2344 2334 -50
41 -65 59 -55 64 21 12 165 48 233 58 86 14 356 5 440 -13z m-805 -235 c30
-22 1088 -1075 2351 -2338 1813 -1814 2307 -2314 2346 -2373 164 -246 231
-483 220 -774 -10 -279 -88 -503 -253 -727 -53 -72 -4475 -4503 -4599 -4608
-44 -37 -102 -82 -128 -100 -48 -33 -48 -33 -115 10 -88 56 -4618 4577 -4718
4709 -345 455 -336 1098 22 1555 102 131 4605 4622 4689 4677 80 53 67 55 185
-31z M5807 8194 c-722 -130 -1337 -994 -1337 -1874 1 -418 146 -785 420 -1060
188 -189 340 -283 684 -424 39 -16 39 -16 30 -219 -16 -360 -12 -702 9 -771
22 -71 71 -126 113 -126 42 0 109 37 125 68 10 20 15 101 19 320 l5 294 57
-89 c277 -430 657 -658 1098 -656 787 3 1534 765 1599 1631 28 365 -74 725
-304 1078 -195 299 -469 516 -772 610 -102 32 -98 14 -77 355 28 446 9 650
-67 713 -38 32 -71 33 -129 4 -71 -36 -74 -53 -73 -386 l1 -283 -59 87 c-375
549 -864 814 -1342 728z m491 -293 c315 -92 596 -362 800 -768 l41 -80 -112
-7 c-340 -21 -627 -144 -863 -369 -111 -105 -187 -203 -246 -313 l-43 -82 -2
187 c-2 324 -42 491 -119 491 -28 0 -85 -48 -125 -106 -29 -43 -29 -43 -29
-898 0 -855 0 -855 -41 -840 -297 104 -628 460 -759 814 -76 206 -99 498 -56
725 114 615 580 1140 1116 1260 98 22 342 14 438 -14z m919 -1178 c4 -38 8
-165 7 -283 0 -199 -2 -224 -28 -335 -93 -396 -302 -708 -606 -904 -177 -113
-445 -182 -642 -166 -76 7 -76 7 -90 73 -22 113 -17 444 10 569 110 509 411
894 819 1049 117 45 224 63 380 63 141 1 141 1 150 -66z m352 -31 c619 -268
924 -1119 675 -1887 -66 -202 -192 -421 -314 -545 -542 -550 -1556 -394 -1902
294 -40 80 -88 197 -88 216 0 6 30 10 66 10 246 0 548 101 767 257 124 88 271
240 354 365 l70 107 6 -217 c8 -337 42 -462 123 -462 26 0 79 45 114 95 30 44
30 44 30 924 0 485 2 881 5 881 3 0 45 -17 94 -38z"/>
</g>
</svg>
